<svg id="Layer_1" data-name="Layer 1" xmlns="http://www.w3.org/2000/svg" viewBox="0 0 250 250"><defs><style>.cls-1{fill:#f14946;}</style></defs><path class="cls-1" d="M179,176.47H70.63a12.58,12.58,0,0,1-12.56-12.56V74.56A12.58,12.58,0,0,1,70.63,62H179a12.58,12.58,0,0,1,12.56,12.56v89.35A12.58,12.58,0,0,1,179,176.47ZM70.63,68A6.59,6.59,0,0,0,64,74.56v89.35a6.59,6.59,0,0,0,6.59,6.58H179a6.59,6.59,0,0,0,6.58-6.58V74.56A6.59,6.59,0,0,0,179,68Z"/><path class="cls-1" d="M148.66,114.74a8.11,8.11,0,0,0-11.46,0l-28.14,28.14L96.61,130.42a7.75,7.75,0,0,0-11,0L63.05,153v19.52l119-.32,8.47-15.62Z"/><circle class="cls-1" cx="98.9" cy="100.84" r="11.95"/></svg>