<svg id="Layer_1" data-name="Layer 1" xmlns="http://www.w3.org/2000/svg" viewBox="0 0 250 250"><defs><style>.cls-1{fill:#f14946;}.cls-2{fill:#fff;}</style></defs><path class="cls-1" d="M158.43,71.16h0A14.16,14.16,0,0,0,144.27,57H106.45A14.16,14.16,0,0,0,92.29,71.16h0A14.16,14.16,0,0,1,78.13,85.32H63.18A14.17,14.17,0,0,0,49,99.49v64.76a14.16,14.16,0,0,0,14.16,14.16H187.54a14.16,14.16,0,0,0,14.16-14.16V99.49a14.17,14.17,0,0,0-14.16-14.17H172.59A14.16,14.16,0,0,1,158.43,71.16Z"/><circle class="cls-2" cx="181.29" cy="104.1" r="5.72"/><circle class="cls-1" cx="125.36" cy="132.01" r="31.25"/><path class="cls-2" d="M125.36,167.89A35.89,35.89,0,1,1,161.25,132,35.93,35.93,0,0,1,125.36,167.89Zm0-62.5A26.62,26.62,0,1,0,152,132,26.65,26.65,0,0,0,125.36,105.39Z"/></svg>